<svg xmlns="http://www.w3.org/2000/svg" width="71" height="71" viewBox="0 0 71 71" fill="none">
    <g filter="url(#filter0_d_1_533)">
        <circle cx="20.286" cy="20.286" r="20.286" transform="matrix(-1 0 0 1 55.572 11)" fill="white"/>
    </g>
    <path d="M44.6872 29.8544C45.0778 30.2449 45.0778 30.8781 44.6872 31.2686L38.3233 37.6326C37.9328 38.0231 37.2996 38.0231 36.9091 37.6326C36.5185 37.2421 36.5185 36.6089 36.9091 36.2184L42.5659 30.5615L36.9091 24.9047C36.5185 24.5141 36.5185 23.881 36.9091 23.4905C37.2996 23.0999 37.9328 23.0999 38.3233 23.4905L44.6872 29.8544ZM27.3167 29.5615L43.9801 29.5615V31.5615L27.3167 31.5615V29.5615Z"
          fill="#222222" fill-opacity="0.5"/>
    <defs>
        <filter id="filter0_d_1_533" x="6.10352e-05" y="0" width="70.572" height="70.572" filterUnits="userSpaceOnUse"
                color-interpolation-filters="sRGB">
            <feFlood flood-opacity="0" result="BackgroundImageFix"/>
            <feColorMatrix in="SourceAlpha" type="matrix" values="0 0 0 0 0 0 0 0 0 0 0 0 0 0 0 0 0 0 127 0"
                           result="hardAlpha"/>
            <feOffset dy="4"/>
            <feGaussianBlur stdDeviation="7.5"/>
            <feColorMatrix type="matrix" values="0 0 0 0 0 0 0 0 0 0 0 0 0 0 0 0 0 0 0.09 0"/>
            <feBlend mode="normal" in2="BackgroundImageFix" result="effect1_dropShadow_1_533"/>
            <feBlend mode="normal" in="SourceGraphic" in2="effect1_dropShadow_1_533" result="shape"/>
        </filter>
    </defs>
</svg>